<?xml version="1.0" encoding="iso-8859-1"?>
<!-- Generator: Adobe Illustrator 24.3.0, SVG Export Plug-In . SVG Version: 6.00 Build 0)  -->
<svg version="1.1" id="Layer_1" xmlns="http://www.w3.org/2000/svg" xmlns:xlink="http://www.w3.org/1999/xlink" x="0px" y="0px"
	 viewBox="0 0 1000 635.629" style="enable-background:new 0 0 1000 635.629;" xml:space="preserve">
<g>
	<g>
		<path style="fill:#FFFFFF;" d="M963.637-1063.008l11.49-22.469c13.533,10.979,30.129,19.405,54.896,19.405
			c17.873,0,35.746-8.426,35.746-23.49s-17.107-19.661-33.959-23.746c-30.384-7.149-61.79-16.852-61.79-49.79
			c0-30.895,29.363-46.726,60.003-46.726c23.746,0,42.13,6.639,58.726,17.873l-11.49,22.724
			c-14.809-9.447-30.129-13.788-47.236-13.788c-10.979,0-29.874,4.596-29.874,19.661c0,13.277,14.809,17.618,34.725,22.469
			c31.406,7.405,61.79,19.15,61.79,51.322c0,34.725-34.214,50.3-66.897,50.3C993.766-1039.262,974.617-1052.794,963.637-1063.008z"
			/>
		<path style="fill:#FFFFFF;" d="M1119.641-1203.695c0-9.447,7.66-17.362,17.107-17.362s17.363,7.915,17.363,17.362
			s-7.915,17.107-17.363,17.107S1119.641-1194.248,1119.641-1203.695z M1122.705-1168.204h28.342v126.389h-28.342V-1168.204z"/>
		<path style="fill:#FFFFFF;" d="M1185.77-1021.133l10.979-17.873c9.958,8.681,24.767,13.022,37.789,13.022
			c27.065,0,40.342-17.363,40.342-43.151v-1.021c-5.107,10.213-18.639,21.703-41.619,21.703c-34.98,0-57.96-27.065-57.96-61.024
			c0-33.959,22.98-61.28,57.96-61.28c19.15,0,36.257,8.937,42.896,21.448v-18.895h27.065v97.537
			c0,44.172-29.619,66.386-65.876,66.386C1215.643-1004.281,1197.515-1010.665,1185.77-1021.133z M1274.88-1110.499
			c0-20.171-15.575-35.491-35.491-35.491c-19.916,0-35.236,15.575-35.236,36.512c0,20.937,15.32,36.257,35.236,36.257
			C1259.816-1073.221,1274.88-1088.541,1274.88-1110.499z"/>
		<path style="fill:#FFFFFF;" d="M1327.477-1104.882c0-36.512,23.746-65.876,58.471-65.876c17.107,0,32.172,6.894,42.13,18.639
			v-16.086h28.342v126.389h-28.342v-15.831c-9.958,11.745-25.022,18.384-42.13,18.384
			C1351.222-1039.262,1327.477-1068.625,1327.477-1104.882z M1428.077-1104.882c0-22.214-14.809-38.555-34.98-38.555
			c-21.448,0-36.768,16.341-36.768,38.555c0,22.214,15.32,38.3,36.768,38.3C1413.013-1066.582,1428.077-1082.413,1428.077-1104.882z
			"/>
		<path style="fill:#FFFFFF;" d="M1481.95-1203.695c0-9.447,7.66-17.362,17.107-17.362s17.363,7.915,17.363,17.362
			s-7.915,17.107-17.363,17.107S1481.95-1194.248,1481.95-1203.695z M1485.014-1168.204h28.342v126.389h-28.342V-1168.204z"/>
		<path style="fill:#FFFFFF;" d="M1541.951-1168.204h28.342v18.129c9.447-14.043,24.001-20.682,40.853-20.682
			c34.214,0,45.449,22.724,45.449,56.428v72.514h-28.342v-68.939c0-20.682-4.596-32.682-25.789-32.682
			c-18.639,0-32.172,14.554-32.172,35.491v66.131h-28.342V-1168.204z"/>
		<path style="fill:#FFFFFF;" d="M1691.316-1082.413v-62.556h-18.639v-23.235h18.639v-24.767l28.342-5.873v30.64h38.044v23.235
			h-38.044v63.322c0,13.533,6.383,17.873,13.533,17.873c9.958,0,18.384-6.128,18.384-6.128l8.426,21.193
			c-5.873,3.83-16.086,9.447-30.384,9.447C1703.827-1039.262,1691.316-1053.305,1691.316-1082.413z"/>
	</g>
	<path style="fill:#FFFFFF;" d="M863.219-1133.554H718.781c-9.691-47.218-51.57-82.839-101.612-82.839s-91.919,35.621-101.61,82.839
		h-94.897c45.043-62.927,117.548-100.81,196.507-100.81c63.584,0,122.969,24.58,167.212,67.006h56.135
		c-53.155-68.11-134.775-108.776-223.346-108.776c-106.697,0-203.352,58.972-252.245,153.902L360-1112.67l11.119,20.885h144.44
		c9.691,47.218,51.568,82.838,101.61,82.838s91.921-35.62,101.612-82.838h94.895c-45.043,62.927-117.547,100.81-196.507,100.81
		c-63.584,0-122.969-24.58-167.212-67.006h-56.135c53.154,68.109,134.776,108.776,223.347,108.776
		c106.697,0,203.352-58.972,252.245-153.901l4.925-9.564L863.219-1133.554z M617.169-1050.716
		c-34.162,0-61.953-27.791-61.953-61.953c0-34.162,27.791-61.954,61.953-61.954s61.955,27.792,61.955,61.954
		C679.124-1078.508,651.331-1050.716,617.169-1050.716z"/>
</g>
<g>
	<g>
		<path d="M-482.624-1063.008l11.49-22.469c13.533,10.979,30.129,19.405,54.896,19.405c17.873,0,35.746-8.426,35.746-23.49
			s-17.107-19.661-33.959-23.746c-30.384-7.149-61.79-16.852-61.79-49.79c0-30.895,29.363-46.726,60.003-46.726
			c23.746,0,42.13,6.639,58.726,17.873l-11.49,22.724c-14.809-9.447-30.129-13.788-47.236-13.788
			c-10.979,0-29.874,4.596-29.874,19.661c0,13.277,14.809,17.618,34.725,22.469c31.406,7.405,61.79,19.15,61.79,51.322
			c0,34.725-34.214,50.3-66.897,50.3C-452.494-1039.262-471.644-1052.794-482.624-1063.008z"/>
		<path d="M-326.62-1203.695c0-9.447,7.66-17.362,17.107-17.362s17.363,7.915,17.363,17.362s-7.915,17.107-17.363,17.107
			S-326.62-1194.248-326.62-1203.695z M-323.556-1168.204h28.342v126.389h-28.342V-1168.204z"/>
		<path d="M-260.491-1021.133l10.979-17.873c9.958,8.681,24.767,13.022,37.789,13.022c27.065,0,40.342-17.363,40.342-43.151v-1.021
			c-5.107,10.213-18.639,21.703-41.619,21.703c-34.98,0-57.96-27.065-57.96-61.024c0-33.959,22.98-61.28,57.96-61.28
			c19.15,0,36.257,8.937,42.896,21.448v-18.895h27.065v97.537c0,44.172-29.618,66.386-65.876,66.386
			C-230.617-1004.281-248.746-1010.665-260.491-1021.133z M-171.381-1110.499c0-20.171-15.575-35.491-35.491-35.491
			s-35.236,15.575-35.236,36.512c0,20.937,15.32,36.257,35.236,36.257C-186.445-1073.221-171.381-1088.541-171.381-1110.499z"/>
		<path d="M-118.784-1104.882c0-36.512,23.746-65.876,58.471-65.876c17.107,0,32.172,6.894,42.13,18.639v-16.086h28.342v126.389
			h-28.342v-15.831c-9.958,11.745-25.022,18.384-42.13,18.384C-95.038-1039.262-118.784-1068.625-118.784-1104.882z
			 M-18.184-1104.882c0-22.214-14.809-38.555-34.98-38.555c-21.448,0-36.768,16.341-36.768,38.555c0,22.214,15.32,38.3,36.768,38.3
			C-33.248-1066.582-18.184-1082.413-18.184-1104.882z"/>
		<path d="M35.689-1203.695c0-9.447,7.66-17.362,17.107-17.362s17.363,7.915,17.363,17.362s-7.915,17.107-17.363,17.107
			S35.689-1194.248,35.689-1203.695z M38.753-1168.204h28.342v126.389H38.753V-1168.204z"/>
		<path d="M95.69-1168.204h28.342v18.129c9.447-14.043,24.001-20.682,40.853-20.682c34.214,0,45.449,22.724,45.449,56.428v72.514
			h-28.342v-68.939c0-20.682-4.596-32.682-25.788-32.682c-18.639,0-32.172,14.554-32.172,35.491v66.131H95.69V-1168.204z"/>
		<path d="M245.055-1082.413v-62.556h-18.639v-23.235h18.639v-24.767l28.342-5.873v30.64h38.044v23.235h-38.044v63.322
			c0,13.533,6.383,17.873,13.533,17.873c9.958,0,18.384-6.128,18.384-6.128l8.426,21.193c-5.873,3.83-16.086,9.447-30.384,9.447
			C257.566-1039.262,245.055-1053.305,245.055-1082.413z"/>
	</g>
	<path d="M-583.042-1133.554H-727.48c-9.691-47.218-51.57-82.839-101.612-82.839s-91.919,35.621-101.61,82.839h-94.897
		c45.043-62.927,117.547-100.81,196.507-100.81c63.584,0,122.969,24.58,167.212,67.006h56.135
		c-53.155-68.11-134.775-108.776-223.346-108.776c-106.697,0-203.352,58.972-252.245,153.902l-4.925,9.562l11.119,20.885h144.44
		c9.691,47.218,51.568,82.838,101.61,82.838s91.921-35.62,101.612-82.838h94.895c-45.043,62.927-117.547,100.81-196.507,100.81
		c-63.584,0-122.969-24.58-167.212-67.006h-56.135c53.154,68.109,134.776,108.776,223.347,108.776
		c106.697,0,203.352-58.972,252.245-153.901l4.924-9.564L-583.042-1133.554z M-829.092-1050.716
		c-34.162,0-61.953-27.791-61.953-61.953c0-34.162,27.791-61.954,61.953-61.954c34.162,0,61.955,27.792,61.955,61.954
		C-767.137-1078.508-794.93-1050.716-829.092-1050.716z"/>
</g>
<g>
	<g>
		<path style="fill:#FFFFFF;" d="M-184.696-239.033l11.49-22.469c13.533,10.979,30.129,19.405,54.896,19.405
			c17.873,0,35.746-8.426,35.746-23.49s-17.107-19.661-33.959-23.746c-30.384-7.149-61.79-16.852-61.79-49.79
			c0-30.895,29.363-46.726,60.003-46.726c23.746,0,42.13,6.639,58.726,17.873l-11.49,22.724
			c-14.809-9.447-30.129-13.788-47.236-13.788c-10.979,0-29.874,4.596-29.874,19.661c0,13.277,14.809,17.618,34.725,22.469
			c31.406,7.405,61.79,19.15,61.79,51.322c0,34.725-34.214,50.3-66.897,50.3C-154.567-215.288-173.716-228.82-184.696-239.033z"/>
		<path style="fill:#FFFFFF;" d="M-28.692-379.721c0-9.447,7.66-17.363,17.107-17.363s17.363,7.915,17.363,17.363
			c0,9.447-7.915,17.107-17.363,17.107S-28.692-370.274-28.692-379.721z M-25.628-344.23H2.714v126.389h-28.342V-344.23z"/>
		<path style="fill:#FFFFFF;" d="M37.437-197.159l10.979-17.873c9.958,8.681,24.767,13.022,37.789,13.022
			c27.065,0,40.342-17.363,40.342-43.151v-1.021c-5.107,10.213-18.639,21.703-41.619,21.703c-34.98,0-57.96-27.065-57.96-61.024
			s22.98-61.28,57.96-61.28c19.15,0,36.257,8.937,42.896,21.448v-18.895h27.065v97.537c0,44.172-29.618,66.386-65.875,66.386
			C67.31-180.307,49.182-186.69,37.437-197.159z M126.547-286.525c0-20.171-15.575-35.491-35.491-35.491
			s-35.236,15.575-35.236,36.512c0,20.937,15.32,36.257,35.236,36.257C111.483-249.247,126.547-264.566,126.547-286.525z"/>
		<path style="fill:#FFFFFF;" d="M179.144-280.908c0-36.512,23.746-65.875,58.471-65.875c17.107,0,32.172,6.894,42.13,18.639
			v-16.086h28.342v126.389h-28.342v-15.831c-9.958,11.745-25.022,18.384-42.13,18.384
			C202.889-215.288,179.144-244.651,179.144-280.908z M279.744-280.908c0-22.214-14.809-38.555-34.98-38.555
			c-21.448,0-36.768,16.341-36.768,38.555s15.32,38.3,36.768,38.3C264.68-242.608,279.744-258.439,279.744-280.908z"/>
		<path style="fill:#FFFFFF;" d="M333.617-379.721c0-9.447,7.66-17.363,17.107-17.363s17.363,7.915,17.363,17.363
			c0,9.447-7.915,17.107-17.363,17.107S333.617-370.274,333.617-379.721z M336.681-344.23h28.342v126.389h-28.342V-344.23z"/>
		<path style="fill:#FFFFFF;" d="M393.618-344.23h28.342v18.129c9.447-14.043,24.001-20.682,40.853-20.682
			c34.214,0,45.449,22.724,45.449,56.428v72.514H479.92v-68.939c0-20.682-4.596-32.682-25.788-32.682
			c-18.639,0-32.172,14.554-32.172,35.491v66.131h-28.342V-344.23z"/>
		<path style="fill:#FFFFFF;" d="M542.983-258.439v-62.556h-18.639v-23.235h18.639v-24.767l28.342-5.873v30.64h38.044v23.235
			h-38.044v63.322c0,13.533,6.383,17.873,13.533,17.873c9.958,0,18.384-6.128,18.384-6.128l8.426,21.193
			c-5.873,3.83-16.086,9.447-30.384,9.447C555.494-215.288,542.983-229.331,542.983-258.439z"/>
	</g>
	<path style="fill:#FFFFFF;" d="M459.535-648.462H315.098c-9.691-47.218-51.57-82.839-101.612-82.839s-91.92,35.621-101.61,82.839
		H16.978c45.043-62.927,117.548-100.81,196.507-100.81c63.584,0,122.969,24.58,167.212,67.006h56.135
		c-53.155-68.11-134.775-108.776-223.346-108.776c-106.697,0-203.352,58.972-252.245,153.902l-4.925,9.563l11.119,20.885h144.44
		c9.691,47.218,51.568,82.838,101.61,82.838s91.921-35.62,101.612-82.838h94.895c-45.043,62.927-117.548,100.81-196.507,100.81
		c-63.584,0-122.969-24.58-167.212-67.006H-9.861c53.154,68.109,134.776,108.776,223.347,108.776
		c106.697,0,203.352-58.972,252.245-153.901l4.925-9.563L459.535-648.462z M213.486-565.624c-34.162,0-61.953-27.791-61.953-61.953
		s27.791-61.954,61.953-61.954s61.955,27.792,61.955,61.954S247.648-565.624,213.486-565.624z"/>
</g>
<g>
	<g>
		<path d="M-1086.261-239.033l11.49-22.469c13.533,10.979,30.129,19.405,54.896,19.405c17.873,0,35.746-8.426,35.746-23.49
			s-17.107-19.661-33.959-23.746c-30.384-7.149-61.79-16.852-61.79-49.79c0-30.895,29.363-46.726,60.003-46.726
			c23.746,0,42.13,6.639,58.726,17.873l-11.49,22.724c-14.809-9.447-30.129-13.788-47.236-13.788
			c-10.979,0-29.874,4.596-29.874,19.661c0,13.277,14.809,17.618,34.725,22.469c31.406,7.405,61.79,19.15,61.79,51.322
			c0,34.725-34.214,50.3-66.897,50.3C-1056.132-215.288-1075.282-228.82-1086.261-239.033z"/>
		<path d="M-930.257-379.721c0-9.447,7.66-17.363,17.107-17.363c9.447,0,17.362,7.915,17.362,17.363
			c0,9.447-7.915,17.107-17.362,17.107C-922.597-362.614-930.257-370.274-930.257-379.721z M-927.193-344.23h28.342v126.389h-28.342
			V-344.23z"/>
		<path d="M-864.129-197.159l10.979-17.873c9.958,8.681,24.767,13.022,37.789,13.022c27.065,0,40.342-17.363,40.342-43.151v-1.021
			c-5.107,10.213-18.639,21.703-41.619,21.703c-34.98,0-57.96-27.065-57.96-61.024s22.98-61.28,57.96-61.28
			c19.15,0,36.257,8.937,42.896,21.448v-18.895h27.065v97.537c0,44.172-29.618,66.386-65.875,66.386
			C-834.255-180.307-852.383-186.69-864.129-197.159z M-775.018-286.525c0-20.171-15.575-35.491-35.491-35.491
			c-19.916,0-35.236,15.575-35.236,36.512c0,20.937,15.32,36.257,35.236,36.257C-790.082-249.247-775.018-264.566-775.018-286.525z"
			/>
		<path d="M-722.422-280.908c0-36.512,23.746-65.875,58.471-65.875c17.107,0,32.172,6.894,42.13,18.639v-16.086h28.342v126.389
			h-28.342v-15.831c-9.958,11.745-25.022,18.384-42.13,18.384C-698.676-215.288-722.422-244.651-722.422-280.908z M-621.821-280.908
			c0-22.214-14.809-38.555-34.98-38.555c-21.448,0-36.768,16.341-36.768,38.555s15.32,38.3,36.768,38.3
			C-636.886-242.608-621.821-258.439-621.821-280.908z"/>
		<path d="M-567.948-379.721c0-9.447,7.66-17.363,17.107-17.363c9.447,0,17.363,7.915,17.363,17.363
			c0,9.447-7.915,17.107-17.363,17.107C-560.288-362.614-567.948-370.274-567.948-379.721z M-564.884-344.23h28.342v126.389h-28.342
			V-344.23z"/>
		<path d="M-507.947-344.23h28.342v18.129c9.447-14.043,24.001-20.682,40.853-20.682c34.214,0,45.449,22.724,45.449,56.428v72.514
			h-28.342v-68.939c0-20.682-4.596-32.682-25.788-32.682c-18.639,0-32.172,14.554-32.172,35.491v66.131h-28.342V-344.23z"/>
		<path d="M-358.582-258.439v-62.556h-18.639v-23.235h18.639v-24.767l28.342-5.873v30.64h38.044v23.235h-38.044v63.322
			c0,13.533,6.383,17.873,13.533,17.873c9.958,0,18.384-6.128,18.384-6.128l8.426,21.193c-5.873,3.83-16.086,9.447-30.384,9.447
			C-346.071-215.288-358.582-229.331-358.582-258.439z"/>
	</g>
	<path d="M-442.03-648.462h-144.438c-9.691-47.218-51.57-82.839-101.612-82.839s-91.919,35.621-101.61,82.839h-94.897
		c45.043-62.927,117.548-100.81,196.507-100.81c63.584,0,122.969,24.58,167.212,67.006h56.135
		c-53.155-68.11-134.775-108.776-223.346-108.776c-106.697,0-203.352,58.972-252.245,153.902l-4.924,9.563l11.119,20.885h144.44
		c9.691,47.218,51.568,82.838,101.61,82.838s91.921-35.62,101.612-82.838h94.895c-45.043,62.927-117.548,100.81-196.507,100.81
		c-63.584,0-122.969-24.58-167.212-67.006h-56.135c53.154,68.109,134.776,108.776,223.347,108.776
		c106.697,0,203.352-58.972,252.245-153.901l4.925-9.563L-442.03-648.462z M-688.08-565.624c-34.162,0-61.953-27.791-61.953-61.953
		s27.791-61.954,61.953-61.954c34.162,0,61.955,27.792,61.955,61.954S-653.918-565.624-688.08-565.624z"/>
</g>
<path style="fill:#FFFFFF;" d="M978.381,277.209H697.558C678.718,185.406,597.294,116.15,500,116.15
	s-178.714,69.256-197.555,161.059H117.942C205.516,154.863,346.483,81.21,500,81.21c123.622,0,239.083,47.789,325.101,130.276
	h109.14C830.895,79.065,672.204,0,500,0C292.555,0,104.634,114.656,9.574,299.222L0,317.814l21.618,40.605h280.827
	C321.286,450.223,402.706,519.477,500,519.477s178.718-69.254,197.558-161.057h184.5C794.484,480.766,653.517,554.419,500,554.419
	c-123.622,0-239.083-47.789-325.102-130.277H65.759C169.104,556.564,327.796,635.629,500,635.629
	c207.445,0,395.366-114.656,490.426-299.221l9.574-18.594L978.381,277.209z M500,438.267c-66.419,0-120.452-54.033-120.452-120.452
	S433.581,197.36,500,197.36s120.456,54.035,120.456,120.454S566.419,438.267,500,438.267z"/>
<path d="M-107.88,277.209h-280.822c-18.841-91.803-100.264-161.059-197.558-161.059s-178.714,69.256-197.555,161.059h-184.503
	C-880.745,154.863-739.778,81.21-586.261,81.21c123.622,0,239.083,47.789,325.101,130.276h109.14
	C-255.366,79.065-414.057,0-586.261,0c-207.445,0-395.366,114.656-490.426,299.222l-9.574,18.592l21.618,40.605h280.827
	c18.841,91.803,100.261,161.057,197.555,161.057s178.718-69.254,197.558-161.057h184.5
	c-87.574,122.346-228.541,195.999-382.058,195.999c-123.622,0-239.083-47.789-325.102-130.277h-109.14
	c103.345,132.422,262.037,211.487,434.241,211.487c207.445,0,395.366-114.656,490.426-299.221l9.574-18.594L-107.88,277.209z
	 M-586.261,438.267c-66.419,0-120.453-54.033-120.453-120.452S-652.68,197.36-586.261,197.36s120.456,54.035,120.456,120.454
	S-519.841,438.267-586.261,438.267z"/>
</svg>

